<svg preserveAspectRatio="none" overflow="visible" style="display: block;" width="9" height="12" viewBox="0 0 9 12" fill="none" xmlns="http://www.w3.org/2000/svg">
<path id="Vector" fill-rule="evenodd" clip-rule="evenodd" d="M4.5 0.837238C3.53752 0.837238 2.61446 1.20477 1.93389 1.85897C1.25331 2.51317 0.87097 3.40047 0.87097 4.32565C0.87097 5.25083 1.25331 6.13813 1.93389 6.79233C2.61446 7.44653 3.53752 7.81406 4.5 7.81406C5.46248 7.81406 6.38554 7.44653 7.06611 6.79233C7.74669 6.13813 8.12903 5.25083 8.12903 4.32565C8.12903 3.40047 7.74669 2.51317 7.06611 1.85897C6.38554 1.20477 5.46248 0.837238 4.5 0.837238ZM2.78692e-06 4.32565C-4.09652e-07 3.6087 0.185385 2.90299 0.539485 2.27199C0.893585 1.641 1.4053 1.1045 2.02859 0.710746C2.65189 0.316996 3.36724 0.0783439 4.11028 0.0162533C4.85333 -0.0458374 5.60078 0.0705805 6.28542 0.355037C6.97005 0.639493 7.57039 1.08307 8.03245 1.64587C8.49451 2.20866 8.8038 2.87304 8.9325 3.57923C9.0612 4.28543 9.00527 5.0113 8.76975 5.69157C8.53423 6.37183 8.1265 6.98516 7.58322 7.47638C7.59777 7.50457 7.60982 7.53388 7.61923 7.56401L7.99664 8.88626C8.17258 9.50413 8.31484 10.0014 8.37929 10.3877C8.44258 10.7661 8.45535 11.1557 8.23529 11.4727C8.10987 11.653 7.93916 11.8009 7.73826 11.8991C7.37245 12.0777 6.97355 11.9901 6.61645 11.8601C6.25181 11.7283 5.79426 11.4989 5.23219 11.2171L5.2049 11.2037C4.78452 10.9933 4.67478 10.9458 4.5691 10.9352C4.5232 10.9299 4.4768 10.9299 4.4309 10.9352C4.32523 10.9458 4.21607 10.9933 3.7951 11.2037L3.76781 11.2171C3.20574 11.4989 2.74819 11.7278 2.38355 11.8601C2.02645 11.9901 1.62755 12.0777 1.26174 11.8991C1.06125 11.7996 0.890254 11.6529 0.764712 11.4727C0.544648 11.1557 0.557422 10.7661 0.620712 10.3877C0.685164 10.0014 0.827422 9.50413 1.00394 8.88626L1.38078 7.56345C1.39022 7.53351 1.40226 7.50439 1.41678 7.47638C0.968919 7.07234 0.612099 6.58423 0.368402 6.04228C0.124705 5.50033 -0.000681641 4.91606 2.78692e-06 4.32565ZM2.1542 8.01779L1.8511 9.08161C1.66529 9.73129 1.53697 10.1845 1.48065 10.5205C1.42258 10.8694 1.46613 10.9743 1.48936 11.0072C1.53188 11.0685 1.58953 11.1188 1.65716 11.1534C1.67052 11.1596 1.75355 11.1942 2.07639 11.077C2.38587 10.9648 2.79639 10.7594 3.39271 10.4613L3.45252 10.4312C3.78232 10.2654 4.04768 10.1326 4.33858 10.1025C4.44619 10.0913 4.55381 10.0913 4.66142 10.1025C4.95174 10.132 5.21768 10.2654 5.54748 10.4312L5.60729 10.4613C6.20303 10.7594 6.61413 10.9648 6.92361 11.077C7.24645 11.1942 7.33006 11.1596 7.34284 11.1534C7.41068 11.1188 7.46854 11.0686 7.51123 11.0072C7.53445 10.9737 7.57742 10.8694 7.51935 10.5205C7.46303 10.1845 7.33413 9.73129 7.14948 9.08161L6.84581 8.01779C6.13997 8.43364 5.32787 8.65295 4.5 8.65128C3.67213 8.65295 2.86003 8.43364 2.1542 8.01779Z" fill="black"/>
</svg>
